HIERARCHY
ROOT Bip001_Pelvis
{
  OFFSET 34.4345 95.6767 -26.8758
  CHANNELS 6 Xposition Yposition Zposition Zrotation Xrotation Yrotation
  JOINT Bip001_Spine
  {
    OFFSET 1.4188e-005 10.2191 -0.0116013
    CHANNELS 3 Zrotation Xrotation Yrotation
    JOINT Bip001_L_Thigh
    {
      OFFSET 11.0458 -10.2192 0.0116197
      CHANNELS 3 Zrotation Xrotation Yrotation
      JOINT Bip001_L_Calf
      {
        OFFSET -0.707118 -44.0221 0.360014
        CHANNELS 3 Zrotation Xrotation Yrotation
        JOINT Bip001_L_Foot
        {
          OFFSET -0.651902 -40.5938 -3.56146
          CHANNELS 3 Zrotation Xrotation Yrotation
          JOINT Bip001_L_Toe0
          {
            OFFSET 0.0530839 -10.2181 13.1504
            CHANNELS 3 Zrotation Xrotation Yrotation
            End Site
            {
              OFFSET -1.02532e-005 0 7.55606
            }
          }
        }
      }
    }
    JOINT Bip001_R_Thigh
    {
      OFFSET -11.0458 -10.2191 0.0115893
      CHANNELS 3 Zrotation Xrotation Yrotation
      JOINT Bip001_R_Calf
      {
        OFFSET 0.706994 -44.0221 0.35984
        CHANNELS 3 Zrotation Xrotation Yrotation
        JOINT Bip001_R_Foot
        {
          OFFSET 0.651786 -40.5938 -3.5613
          CHANNELS 3 Zrotation Xrotation Yrotation
          JOINT Bip001_R_Toe0
          {
            OFFSET -0.0531479 -10.2181 13.1504
            CHANNELS 3 Zrotation Xrotation Yrotation
            End Site
            {
              OFFSET -1.02894e-005 0 7.55606
            }
          }
        }
      }
    }
    JOINT Bip001_Spine1
    {
      OFFSET 1.87041e-005 14.5736 1.08638
      CHANNELS 3 Zrotation Xrotation Yrotation
      JOINT Bip001_Spine2
      {
        OFFSET 2.24614e-005 14.5058 -1.69078
        CHANNELS 3 Zrotation Xrotation Yrotation
        JOINT Bip001_Neck
        {
          OFFSET 2.20278e-005 15.3945 -0.489414
          CHANNELS 3 Zrotation Xrotation Yrotation
          JOINT Bip001_L_Clavicle
          {
            OFFSET 6.06036 -0.000579998 0.00836775
            CHANNELS 3 Zrotation Xrotation Yrotation
            JOINT Bip001_L_UpperArm
            {
              OFFSET 11.5509 -0.0600302 0.00193952
              CHANNELS 3 Zrotation Xrotation Yrotation
              JOINT Bip001_L_Forearm
              {
                OFFSET 25.9523 0.0806089 -2.15551
                CHANNELS 3 Zrotation Xrotation Yrotation
                JOINT Bip001_L_Hand
                {
                  OFFSET 32.2475 0.153767 1.63968
                  CHANNELS 3 Zrotation Xrotation Yrotation
                  JOINT Bip001_L_Finger0
                  {
                    OFFSET 6.04639 -2.20976 5.90322
                    CHANNELS 3 Zrotation Xrotation Yrotation
                    End Site
                    {
                      OFFSET 4.22375 -1.43895 0.606485
                    }
                  }
                  JOINT Bip001_L_Finger1
                  {
                    OFFSET 11.0826 -0.704819 -0.198153
                    CHANNELS 3 Zrotation Xrotation Yrotation
                    End Site
                    {
                      OFFSET 6.20027 -0.397518 -0.0787166
                    }
                  }
                }
              }
            }
          }
          JOINT Bip001_R_Clavicle
          {
            OFFSET -6.06037 -0.000563197 0.00835105
            CHANNELS 3 Zrotation Xrotation Yrotation
            JOINT Bip001_R_UpperArm
            {
              OFFSET -11.5509 -0.0599978 0.00190698
              CHANNELS 3 Zrotation Xrotation Yrotation
              JOINT Bip001_R_Forearm
              {
                OFFSET -25.9523 0.0806822 -2.15589
                CHANNELS 3 Zrotation Xrotation Yrotation
                JOINT Bip001_R_Hand
                {
                  OFFSET -32.2475 0.153859 1.63989
                  CHANNELS 3 Zrotation Xrotation Yrotation
                  JOINT Bip001_R_Finger0
                  {
                    OFFSET -6.04641 -2.20976 5.90317
                    CHANNELS 3 Zrotation Xrotation Yrotation
                    End Site
                    {
                      OFFSET -4.22376 -1.43895 0.60647
                    }
                  }
                  JOINT Bip001_R_Finger1
                  {
                    OFFSET -11.0826 -0.704794 -0.198182
                    CHANNELS 3 Zrotation Xrotation Yrotation
                    End Site
                    {
                      OFFSET -6.20028 -0.397504 -0.0787333
                    }
                  }
                }
              }
            }
          }
          JOINT Bip001_Head
          {
            OFFSET 1.09673e-005 11.2744 2.05948
            CHANNELS 3 Zrotation Xrotation Yrotation
            End Site
            {
              OFFSET 2.89576e-005 20.8808 -2.77728e-005
            }
          }
        }
      }
    }
  }
}
MOTION
Frames:	5
Frame Time:	0.04
34.2304 95.0755 -26.4473 -2.68332 2.23477 22.1561 -0.681418 0.52663 1.81051 9.52466 -11.678 8.72895 -0.0204668 18.5616 -21.1327 0.516072 -10.9372 0.0565286 1.40047 -1.55646 -1.89286 1.79461 1.12329 -16.7686 -3.14362 8.696 0.271261 -9.90381 -6.10917 -8.5934 3.61493 -11.5846 3.60625 -1.3802 1.03104 3.62723 -1.37933 1.03059 3.62731 6.23685 -15.2158 -7.36491 -28.6053 12.4134 8.62997 -73.9537 45.4032 34.0488 17.3144 -20.9396 -40.4405 7.5568 0.447132 3.78772 5.96354e-016 3.18055e-015 -0 1.78906e-015 3.18056e-015 -1.59028e-015 -6.33776 17.6129 33.744 28.1497 -53.0561 42.5349 -49.9621 0.846719 60.9328 -20.9553 1.33242 3.36569 5.46658e-016 -3.18055e-015 7.20594e-016 -4.96962e-017 -3.18056e-015 2.06239e-015 -7.67161 0.924762 -4.15354 
33.9994 95.0764 -26.3778 -2.63878 2.40065 23.2413 -0.727844 0.593664 1.9762 9.49305 -12.1492 8.69444 0.130933 18.4349 -22.0988 -0.0912674 -10.9545 0.0287225 1.38134 -1.23573 -1.91898 1.99804 0.981934 -18.692 -3.48111 8.68722 0.475167 -9.72666 -6.3616 -8.09852 3.60243 -11.5296 3.5771 -1.47057 1.16196 3.96159 -1.47313 1.16182 3.96067 6.67838 -15.444 -8.28298 -29.3067 11.994 9.90441 -74.0294 46.2501 34.8688 17.3513 -20.9283 -40.9954 7.15715 0.63612 3.79755 7.55382e-015 1.59028e-015 -0 3.97569e-015 0 -0 -9.88088 16.6861 37.4655 24.0717 -48.144 47.5844 -58.698 6.01573 44.3566 -20.5384 -0.629935 1.66723 -3.97569e-016 0 1.19271e-015 -3.97569e-016 0 1.2921e-015 -7.6435 2.42106 -4.86483 
33.7947 95.0511 -26.3083 -2.82052 2.56233 24.4576 -0.669807 0.550627 2.07619 9.5124 -12.774 8.9694 0.359281 18.6163 -23.4206 0.22053 -10.6569 0.0404462 1.71773 -1.53744 -2.27558 2.32433 0.985316 -20.9324 -3.86227 8.42913 0.906535 -9.56332 -6.55315 -7.48885 3.57684 -11.4305 3.50298 -1.36026 1.07577 4.16201 -1.35973 1.07582 4.16287 8.61565 -14.5991 -9.81228 -29.9025 10.2494 10.9459 -76.2218 48.0752 35.8283 18.1281 -19.9333 -40.0458 6.96892 0.658701 4.02786 -7.7526e-015 1.59028e-015 -1.59028e-015 -4.37326e-015 -1.59028e-015 -0 -12.0188 14.9971 36.9992 30.3141 -50.3794 57.8477 -50.985 6.5221 45.1094 -18.8203 0.663411 3.44321 5.96354e-016 6.36111e-015 -7.45442e-016 -4.96962e-017 3.18056e-015 -5.96354e-016 -8.76301 2.6297 -5.64278 
33.7681 95.1176 -26.371 -2.61004 2.49254 24.8512 -0.53632 0.544179 2.07795 9.28681 -12.6095 8.78465 0.181188 18.3316 -23.1226 -1.09526 -11.0466 -0.01554 1.32724 -0.570659 -2.01761 2.04509 1.04022 -20.9022 -3.82637 8.61449 0.907695 -9.63476 -6.37924 -7.87445 3.53502 -11.2958 3.43956 -1.09465 1.06807 4.16112 -1.09358 1.06807 4.16345 10.3803 -13.7658 -11.1823 -31.5462 8.43799 11.6312 -77.048 48.4969 36.5086 20.172 -16.8597 -38.9695 4.03864 1.46999 4.43478 -2.78299e-015 6.36111e-015 -3.18055e-015 -3.97569e-016 3.18056e-015 -1.59028e-015 -17.493 11.3545 35.4322 18.7628 -44.1077 51.044 -46.9701 3.38738 39.7517 -16.2027 1.94444 4.73052 1.98785e-016 -6.36111e-015 7.95139e-016 1.39149e-015 -6.36111e-015 1.88845e-015 -10.4339 2.764 -6.16631 
33.6355 95.2238 -26.4555 -2.5249 2.22 24.5548 -0.361155 0.601481 1.82737 9.44559 -12.0287 8.62806 -0.403332 17.6895 -22.1926 -1.24193 -10.6486 -0.0195643 1.39883 -0.528454 -2.12329 1.92818 1.12912 -19.8527 -3.66479 8.62903 0.735752 -9.61267 -6.03756 -8.25358 3.45876 -11.0832 3.36778 -0.740116 1.19121 3.65669 -0.740758 1.19116 3.65756 10.9189 -13.0019 -11.2809 -32.5984 7.29065 12.0367 -76.9075 49.4304 36.567 21.4693 -14.1328 -37.555 3.00025 1.73558 4.48882 3.97569e-015 0 -2.38542e-015 4.37326e-015 3.18056e-015 -2.38542e-015 -18.8924 9.96063 35.383 10.2113 -37.3932 47.4571 -47.4888 1.28269 37.3496 -14.1343 1.22736 5.98409 -9.93923e-017 3.18055e-015 -5.46658e-016 -1.39149e-015 3.18056e-015 -5.96354e-016 -10.8326 2.40704 -6.08357 
